<svg width="173" height="173" viewBox="0 0 173 173" fill="none" xmlns="http://www.w3.org/2000/svg">
<circle cx="86.5" cy="86.5" r="85.5" fill="#191919" fill-opacity="0.1"/>
<path d="M70.9335 153.377C71.4159 153.478 71.8069 153.671 72.1067 153.957C72.4059 154.245 72.607 154.607 72.71 155.041C72.8107 155.475 72.8046 155.96 72.6917 156.496L72.6902 156.503C72.5764 157.043 72.3848 157.491 72.1154 157.846C71.8437 158.2 71.5129 158.449 71.1228 158.591C70.7305 158.733 70.2966 158.755 69.8212 158.656C69.3435 158.557 68.9548 158.364 68.655 158.078C68.353 157.792 68.1504 157.431 68.0474 156.996C67.944 156.564 67.9489 156.079 68.0623 155.541L68.0637 155.534C68.1766 154.998 68.368 154.552 68.6378 154.194C68.9049 153.839 69.2348 153.589 69.6277 153.445C70.0182 153.3 70.4535 153.277 70.9335 153.377ZM70.8113 153.957C70.4664 153.886 70.1514 153.909 69.8662 154.027C69.5811 154.145 69.3385 154.344 69.1386 154.623C68.9381 154.905 68.7943 155.253 68.7069 155.667L68.7054 155.674C68.6171 156.094 68.6081 156.471 68.6785 156.807C68.7489 157.142 68.8911 157.42 69.1051 157.639C69.3191 157.859 69.5985 158.004 69.9434 158.076C70.286 158.147 70.5996 158.125 70.8842 158.009C71.1689 157.893 71.4124 157.696 71.6147 157.417C71.8146 157.138 71.9587 156.789 72.0471 156.369L72.0485 156.362C72.1359 155.948 72.1458 155.572 72.0782 155.234C72.0102 154.899 71.8694 154.621 71.6559 154.399C71.4424 154.177 71.1608 154.03 70.8113 153.957Z" fill="#F9F9F9"/>
<path d="M63.78 151.62L62.3423 155.962L63.9204 156.477L63.7385 157.027L59.9717 155.796L60.1535 155.246L61.7315 155.762L63.1692 151.421L63.78 151.62Z" fill="#F9F9F9"/>
<path d="M58.308 149.642L56.152 154.321L55.567 154.055L56.4993 152.032L53.9254 150.862L52.993 152.885L52.408 152.619L54.564 147.94L55.149 148.206L54.1674 150.336L56.7414 151.507L57.723 149.376L58.308 149.642Z" fill="#F9F9F9"/>
<path d="M43.4535 147.361L43.049 147.086L43.8043 146.084L44.1202 146.299L43.4535 147.361ZM44.8734 145.3L44.1202 146.299L43.8043 146.084L44.4689 145.025L44.8734 145.3ZM44.7095 147.23L44.294 147.405L43.7989 146.261L44.1265 146.126L44.7095 147.23ZM42.7196 145.877L43.967 146.017L43.9583 146.37L42.7056 146.325L42.7196 145.877ZM43.2158 145.157L43.6313 144.982L44.1265 146.126L43.7989 146.261L43.2158 145.157ZM45.2058 146.51L43.9583 146.37L43.967 146.017L45.2197 146.062L45.2058 146.51Z" fill="#F9F9F9"/>
<path d="M37.0523 135.518C37.4068 135.86 37.6342 136.232 37.7345 136.633C37.8331 137.036 37.8095 137.448 37.6635 137.87C37.5158 138.29 37.2506 138.695 36.8678 139.087L36.8628 139.092C36.4766 139.487 36.0744 139.762 35.6561 139.917C35.2361 140.07 34.8229 140.103 34.4163 140.015C34.0081 139.925 33.6293 139.712 33.2799 139.375C32.9289 139.036 32.7032 138.666 32.6029 138.264C32.5009 137.862 32.5229 137.449 32.6688 137.028C32.8131 136.608 33.0775 136.202 33.462 135.809L33.467 135.804C33.8498 135.412 34.2512 135.138 34.6711 134.981C35.0877 134.824 35.5009 134.79 35.9109 134.878C36.3191 134.964 36.6996 135.178 37.0523 135.518ZM36.6379 135.942C36.3845 135.697 36.1054 135.549 35.8007 135.496C35.4959 135.443 35.1841 135.481 34.865 135.61C34.5444 135.74 34.2359 135.957 33.9396 136.26L33.9346 136.265C33.635 136.571 33.425 136.885 33.3046 137.205C33.1843 137.525 33.1558 137.835 33.2191 138.135C33.2825 138.434 33.4409 138.706 33.6944 138.951C33.9461 139.194 34.2235 139.343 34.5265 139.397C34.8296 139.451 35.1415 139.415 35.4622 139.288C35.7813 139.159 36.0906 138.942 36.3902 138.636L36.3951 138.63C36.6914 138.328 36.9014 138.016 37.0252 137.695C37.1473 137.377 37.1775 137.067 37.1158 136.766C37.054 136.464 36.8947 136.19 36.6379 135.942Z" fill="#F9F9F9"/>
<path d="M31.953 130.231L28.4112 133.125L29.4699 134.404L29.022 134.769L26.4949 131.717L26.9428 131.351L28.0014 132.63L31.5432 129.736L31.953 130.231Z" fill="#F9F9F9"/>
<path d="M28.3942 125.651L24.0673 128.447L23.7153 127.91L25.5864 126.7L24.0373 124.335L22.1662 125.544L21.8141 125.007L26.141 122.21L26.4931 122.748L24.523 124.021L26.0721 126.387L28.0422 125.113L28.3942 125.651Z" fill="#F9F9F9"/>
<path d="M17.0925 115.812L16.8984 115.363L18.0721 114.92L18.2238 115.271L17.0925 115.812ZM19.3943 114.829L18.2238 115.271L18.0721 114.92L19.2001 114.38L19.3943 114.829ZM18.2225 116.374L17.778 116.299L17.9725 115.067L18.3216 115.128L18.2225 116.374ZM17.2671 114.165L18.245 114.951L18.049 115.244L17.0155 114.536L17.2671 114.165ZM18.0716 113.822L18.5161 113.896L18.3216 115.128L17.9725 115.067L18.0716 113.822ZM19.0269 116.03L18.049 115.244L18.245 114.951L19.2786 115.659L19.0269 116.03Z" fill="#F9F9F9"/>
<path d="M18.0488 102.405C18.1642 102.884 18.1567 103.32 18.0261 103.713C17.8933 104.106 17.6524 104.443 17.3033 104.721C16.9537 104.998 16.5126 105.199 15.98 105.326L15.9731 105.327C15.4359 105.455 14.9493 105.473 14.5134 105.381C14.0769 105.287 13.7108 105.094 13.4153 104.802C13.1192 104.508 12.9143 104.125 12.8005 103.652C12.6862 103.178 12.6944 102.744 12.8249 102.351C12.9548 101.956 13.1943 101.619 13.5434 101.34C13.8901 101.062 14.3309 100.859 14.8658 100.732L14.8728 100.73C15.4054 100.604 15.8908 100.586 16.329 100.678C16.7644 100.767 17.1313 100.959 17.4297 101.253C17.7276 101.544 17.934 101.928 18.0488 102.405ZM17.4722 102.542C17.3897 102.199 17.2341 101.924 17.0054 101.717C16.7767 101.509 16.4934 101.375 16.1554 101.313C15.8151 101.252 15.4388 101.271 15.0267 101.369L15.0197 101.371C14.6029 101.47 14.2578 101.623 13.9845 101.83C13.7112 102.037 13.521 102.284 13.4139 102.571C13.3069 102.858 13.2946 103.173 13.3771 103.515C13.4591 103.856 13.6132 104.13 13.8396 104.338C14.066 104.545 14.3485 104.681 14.687 104.745C15.025 104.807 15.4024 104.788 15.8192 104.689L15.8261 104.687C16.2383 104.589 16.5825 104.438 16.8587 104.232C17.1326 104.028 17.3242 103.782 17.4336 103.494C17.543 103.206 17.5559 102.889 17.4722 102.542Z" fill="#F9F9F9"/>
<path d="M16.5906 95.2286L12.0515 95.7882L12.2573 97.4355L11.6833 97.5063L11.1921 93.5739L11.7661 93.5031L11.9719 95.1505L16.511 94.5909L16.5906 95.2286Z" fill="#F9F9F9"/>
<path d="M16.0619 89.4697L10.9104 89.5311L10.9026 88.8885L13.1303 88.8619L13.0961 86.0345L10.8684 86.0611L10.8607 85.4185L16.0121 85.3571L16.0199 85.9997L13.6744 86.0276L13.7086 88.855L16.0541 88.8271L16.0619 89.4697Z" fill="#F9F9F9"/>
<path d="M11.8277 75.1465L11.9056 74.6637L13.1347 74.9136L13.0738 75.2907L11.8277 75.1465ZM14.2993 75.54L13.0738 75.2907L13.1347 74.9136L14.3772 75.0572L14.2993 75.54ZM12.4787 76.2227L12.1436 75.9235L12.9712 74.9851L13.2332 75.2221L12.4787 76.2227ZM12.8619 73.847L13.2639 75.0317L12.9405 75.1755L12.4495 74.0272L12.8619 73.847ZM13.7257 73.9846L14.0608 74.2837L13.2332 75.2221L12.9712 74.9851L13.7257 73.9846ZM13.3425 76.3602L12.9405 75.1755L13.2639 75.0317L13.7549 76.18L13.3425 76.3602Z" fill="#F9F9F9"/>
<path d="M19.8642 64.3347C19.7037 64.8005 19.4624 65.1647 19.1403 65.4272C18.816 65.689 18.4313 65.8448 17.9861 65.8945C17.5418 65.942 17.0605 65.8777 16.5422 65.7014L16.5355 65.6991C16.0127 65.5213 15.5919 65.2777 15.2731 64.9681C14.9551 64.6563 14.7498 64.2987 14.6572 63.8951C14.5655 63.4893 14.5987 63.0569 14.7568 62.5979C14.9158 62.1366 15.1563 61.7746 15.4784 61.5121C15.8013 61.2473 16.1852 61.09 16.6304 61.0403C17.0732 60.9898 17.5549 61.053 18.0755 61.23L18.0822 61.2323C18.6005 61.4086 19.0202 61.6519 19.3412 61.9622C19.6608 62.2694 19.8676 62.6264 19.9616 63.0329C20.0564 63.4372 20.0239 63.8712 19.8642 64.3347ZM19.3031 64.1439C19.4179 63.8109 19.4345 63.496 19.353 63.1993C19.2714 62.9025 19.1044 62.6383 18.852 62.4067C18.5972 62.1742 18.2693 61.9898 17.8682 61.8534L17.8614 61.8511C17.4558 61.7132 17.0818 61.6589 16.7394 61.6882C16.397 61.7176 16.1031 61.8251 15.8579 62.0107C15.6127 62.1963 15.4327 62.4556 15.3179 62.7887C15.204 63.1195 15.1866 63.4328 15.2659 63.7288C15.3452 64.0248 15.5106 64.2897 15.7623 64.5236C16.0148 64.7553 16.3439 64.9401 16.7495 65.078L16.7562 65.0803C17.1573 65.2167 17.5298 65.2718 17.8737 65.2454C18.2154 65.2183 18.51 65.1123 18.7574 64.9275C19.0049 64.7426 19.1868 64.4814 19.3031 64.1439Z" fill="#F9F9F9"/>
<path d="M22.5065 57.5042L18.3662 55.5614L17.6533 57.0607L17.1297 56.815L18.8315 53.2361L19.3551 53.4817L18.6422 54.981L22.7825 56.9238L22.5065 57.5042Z" fill="#F9F9F9"/>
<path d="M25.1587 52.3574L20.7661 49.6654L21.1051 49.1195L23.0046 50.2836L24.4963 47.8814L22.5968 46.7174L22.9358 46.1714L27.3284 48.8634L26.9894 49.4093L24.9895 48.1837L23.4978 50.5858L25.4977 51.8114L25.1587 52.3574Z" fill="#F9F9F9"/>
<path d="M29.2892 38.0046L29.6142 37.6391L30.5204 38.5058L30.2666 38.7912L29.2892 38.0046ZM31.1701 39.6556L30.2666 38.7912L30.5204 38.5058L31.4951 39.2901L31.1701 39.6556ZM29.2627 39.2592L29.1396 38.8281L30.3437 38.4789L30.4383 38.8184L29.2627 39.2592ZM30.8619 37.4611L30.5664 38.6744L30.2156 38.623L30.4161 37.3929L30.8619 37.4611ZM31.5193 38.0382L31.6423 38.4692L30.4383 38.8184L30.3437 38.4789L31.5193 38.0382ZM29.9201 39.8362L30.2156 38.623L30.5664 38.6744L30.3658 39.9044L29.9201 39.8362Z" fill="#F9F9F9"/>
<path d="M41.9147 33.1631C41.5294 33.4702 41.1303 33.6484 40.7172 33.6976C40.3027 33.745 39.8938 33.6707 39.4907 33.4746C39.0894 33.277 38.7168 32.9653 38.3728 32.5395L38.3683 32.5339C38.0213 32.1043 37.7959 31.6738 37.692 31.2422C37.59 30.8091 37.608 30.3976 37.7458 30.0076C37.8855 29.6162 38.1452 29.2692 38.5249 28.9666C38.9064 28.6624 39.3037 28.4857 39.7168 28.4365C40.1317 28.3858 40.5407 28.4584 40.9439 28.6545C41.3455 28.8487 41.7191 29.1597 42.0646 29.5874L42.0691 29.593C42.413 30.0188 42.6377 30.4485 42.7431 30.882C42.8488 31.3121 42.8325 31.7238 42.6943 32.117C42.558 32.5088 42.2981 32.8575 41.9147 33.1631ZM41.5423 32.7021C41.8177 32.4825 42.0004 32.2258 42.0904 31.9318C42.1804 31.6379 42.1806 31.3258 42.0911 30.9953C42.0002 30.663 41.8216 30.332 41.5554 30.0025L41.5509 29.9969C41.2817 29.6636 40.9944 29.4178 40.689 29.2595C40.3837 29.1011 40.0776 29.0346 39.7707 29.0601C39.4639 29.0855 39.1728 29.208 38.8973 29.4276C38.6237 29.6457 38.4412 29.9008 38.3497 30.1928C38.2583 30.4849 38.2563 30.7969 38.344 31.1288C38.4334 31.4593 38.6128 31.7911 38.882 32.1244L38.8865 32.13C39.1527 32.4596 39.4383 32.7052 39.7433 32.8669C40.0468 33.0267 40.3527 33.0949 40.661 33.0713C40.9693 33.0477 41.2631 32.9246 41.5423 32.7021Z" fill="#F9F9F9"/>
<path d="M47.8203 28.7987L45.3611 24.9427L43.956 25.827L43.645 25.3394L46.9989 23.2284L47.3099 23.716L45.9049 24.6004L48.3642 28.4563L47.8203 28.7987Z" fill="#F9F9F9"/>
<path d="M52.8373 25.8617L50.5691 21.2361L51.1475 20.9561L52.1284 22.9564L54.6736 21.7247L53.6928 19.7244L54.2713 19.4445L56.5395 24.0702L55.961 24.3501L54.9283 22.244L52.383 23.4757L53.4157 25.5818L52.8373 25.8617Z" fill="#F9F9F9"/>
<path d="M64.0536 15.9166L64.5236 15.7812L64.8234 16.9989L64.4563 17.1047L64.0536 15.9166ZM64.7552 18.319L64.4563 17.1047L64.8234 16.9989L65.2252 18.1835L64.7552 18.319ZM63.359 16.964L63.4861 16.5335L64.6888 16.8816L64.5866 17.2195L63.359 16.964ZM65.6712 16.2975L64.7718 17.1661L64.5035 16.935L65.3318 16.0015L65.6712 16.2975ZM65.9164 17.1372L65.7892 17.5677L64.5866 17.2195L64.6888 16.8816L65.9164 17.1372ZM63.6042 17.8036L64.5035 16.935L64.7718 17.1661L63.9435 18.0996L63.6042 17.8036Z" fill="#F9F9F9"/>
<path d="M77.3193 18.5486C76.8296 18.6031 76.3975 18.5409 76.0228 18.3623C75.6479 18.1812 75.3432 17.9002 75.1087 17.5192C74.8765 17.1379 74.7298 16.6752 74.6685 16.1312L74.6677 16.1241C74.6058 15.5754 74.647 15.0907 74.7912 14.6699C74.9378 14.2489 75.1739 13.9101 75.4995 13.6536C75.8274 13.3968 76.2327 13.2416 76.7153 13.1879C77.2002 13.134 77.63 13.1964 78.0046 13.375C78.3816 13.5534 78.6874 13.8332 78.9219 14.2142C79.1562 14.5929 79.3041 15.0554 79.3657 15.6018L79.3665 15.6088C79.4278 16.1528 79.3865 16.6364 79.2425 17.0595C79.1007 17.48 78.8659 17.8198 78.5382 18.079C78.2129 18.3379 77.8066 18.4944 77.3193 18.5486ZM77.2529 17.9597C77.603 17.9208 77.8949 17.8009 78.1286 17.6001C78.3622 17.3993 78.5301 17.1351 78.6321 16.8077C78.7339 16.4779 78.761 16.1024 78.7136 15.6814L78.7128 15.6744C78.6648 15.2486 78.5547 14.8873 78.3823 14.5903C78.2099 14.2934 77.9876 14.0738 77.7152 13.9317C77.4429 13.7895 77.1317 13.7379 76.7816 13.7769C76.4339 13.8155 76.1431 13.9341 75.9091 14.1325C75.6752 14.3309 75.506 14.594 75.4017 14.9218C75.2996 15.2492 75.2726 15.6258 75.3206 16.0515L75.3214 16.0586C75.3688 16.4796 75.4777 16.8399 75.6479 17.1395C75.818 17.4367 76.0392 17.6576 76.3118 17.8021C76.5844 17.9466 76.8981 17.9991 77.2529 17.9597Z" fill="#F9F9F9"/>
<path d="M84.6598 18L84.6598 13.4265L82.9997 13.4265V12.8482L86.9626 12.8482V13.4265L85.3025 13.4265L85.3025 18L84.6598 18Z" fill="#F9F9F9"/>
<path d="M90.4785 18.1819L91.0553 13.0625L91.694 13.1335L91.4446 15.3473L94.2549 15.6598L94.5043 13.446L95.143 13.517L94.5662 18.6364L93.9275 18.5654L94.1902 16.2345L91.3799 15.922L91.1172 18.2529L90.4785 18.1819Z" fill="#F9F9F9"/>
<path d="M105.309 15.7324L105.779 15.8679L105.377 17.0559L105.01 16.9501L105.309 15.7324ZM104.608 18.1348L105.01 16.9501L105.377 17.0559L105.078 18.2702L104.608 18.1348ZM104.158 16.2478L104.498 15.9518L105.326 16.8853L105.058 17.1164L104.158 16.2478ZM106.471 16.9142L105.243 17.1697L105.141 16.8319L106.343 16.4837L106.471 16.9142ZM106.225 17.7539L105.886 18.0499L105.058 17.1164L105.326 16.8853L106.225 17.7539ZM103.913 17.0874L105.141 16.8319L105.243 17.1697L104.04 17.5179L103.913 17.0874Z" fill="#F9F9F9"/>
<path d="M115.107 25.0035C114.663 24.7889 114.331 24.5065 114.11 24.1565C113.891 23.8043 113.784 23.4051 113.791 22.9589C113.8 22.5136 113.925 22.0453 114.166 21.5538L114.169 21.5474C114.412 21.0516 114.708 20.6645 115.056 20.3863C115.407 20.1091 115.789 19.949 116.203 19.9058C116.618 19.8637 117.045 19.9484 117.482 20.1599C117.921 20.3724 118.251 20.6537 118.472 21.0037C118.694 21.3548 118.802 21.7535 118.796 22.1997C118.79 22.6438 118.666 23.1127 118.424 23.6064L118.421 23.6128C118.18 24.1043 117.885 24.4903 117.535 24.7706C117.189 25.0499 116.807 25.2116 116.39 25.2559C115.976 25.3012 115.548 25.2171 115.107 25.0035ZM115.368 24.4714C115.685 24.6248 115.996 24.679 116.302 24.6339C116.608 24.5889 116.892 24.4553 117.154 24.2334C117.418 24.0093 117.643 23.707 117.83 23.3266L117.833 23.3202C118.021 22.9356 118.123 22.5721 118.137 22.2299C118.151 21.8877 118.081 21.5842 117.927 21.3194C117.773 21.0545 117.538 20.8454 117.221 20.692C116.906 20.5396 116.596 20.4848 116.291 20.5278C115.987 20.5707 115.702 20.7026 115.437 20.9236C115.175 21.1455 114.949 21.4488 114.76 21.8335L114.757 21.8399C114.571 22.2203 114.469 22.5822 114.452 22.9255C114.435 23.2667 114.504 23.5707 114.656 23.8377C114.809 24.1046 115.046 24.3158 115.368 24.4714Z" fill="#F9F9F9"/>
<path d="M121.612 28.4429L124.072 24.587L122.667 23.7027L122.978 23.215L126.332 25.326L126.021 25.8137L124.616 24.9293L122.156 28.7853L121.612 28.4429Z" fill="#F9F9F9"/>
<path d="M126.435 31.6889L129.673 27.6812L130.175 28.0818L128.775 29.8148L130.986 31.5774L132.386 29.8443L132.889 30.2449L129.652 34.2526L129.149 33.852L130.623 32.0273L128.412 30.2648L126.938 32.0895L126.435 31.6889Z" fill="#F9F9F9"/>
<path d="M140.282 37.5161L140.607 37.8816L139.629 38.6683L139.376 38.3828L140.282 37.5161ZM138.401 39.1671L139.376 38.3828L139.629 38.6683L138.726 39.5326L138.401 39.1671ZM139.032 37.3355L139.477 37.2673L139.678 38.4973L139.327 38.5488L139.032 37.3355ZM140.631 39.1336L139.455 38.6928L139.55 38.3533L140.754 38.7025L140.631 39.1336ZM139.974 39.7106L139.528 39.7788L139.327 38.5488L139.678 38.4973L139.974 39.7106ZM138.374 37.9125L139.55 38.3533L139.455 38.6928L138.251 38.3436L138.374 37.9125Z" fill="#F9F9F9"/>
<path d="M143.572 50.5512C143.312 50.1327 143.183 49.7165 143.184 49.3029C143.187 48.888 143.31 48.4939 143.555 48.1207C143.801 47.7496 144.157 47.421 144.624 47.1349L144.63 47.1312C145.101 46.8426 145.558 46.6742 146.001 46.6257C146.446 46.5794 146.854 46.6486 147.227 46.8334C147.601 47.0203 147.916 47.3199 148.172 47.7324C148.429 48.1469 148.558 48.561 148.557 48.9747C148.557 49.3904 148.435 49.7848 148.19 50.158C147.948 50.53 147.592 50.8596 147.123 51.1469L147.117 51.1506C146.651 51.4367 146.195 51.6045 145.749 51.6542C145.307 51.7046 144.898 51.637 144.522 51.4514C144.148 51.2678 143.831 50.9677 143.572 50.5512ZM144.078 50.2415C144.263 50.5408 144.498 50.7532 144.78 50.8788C145.063 51.0043 145.374 51.0437 145.715 50.9968C146.058 50.9487 146.41 50.8139 146.771 50.5925L146.777 50.5888C147.142 50.3649 147.422 50.1123 147.617 49.8309C147.812 49.5494 147.916 49.2557 147.928 48.9498C147.939 48.6439 147.852 48.3414 147.667 48.0421C147.482 47.7449 147.249 47.5329 146.969 47.406C146.689 47.2792 146.377 47.2383 146.035 47.2831C145.695 47.33 145.342 47.4654 144.976 47.6893L144.97 47.693C144.609 47.9144 144.329 48.1654 144.131 48.446C143.935 48.7255 143.83 49.0187 143.816 49.3259C143.802 49.633 143.889 49.9382 144.078 50.2415Z" fill="#F9F9F9"/>
<path d="M147.215 56.9161L151.356 54.9733L150.643 53.474L151.166 53.2283L152.868 56.8073L152.344 57.053L151.632 55.5537L147.491 57.4965L147.215 56.9161Z" fill="#F9F9F9"/>
<path d="M149.54 62.221L154.417 60.5623L154.627 61.1699L152.518 61.8872L153.439 64.5605L155.548 63.8432L155.757 64.4508L150.88 66.1095L150.67 65.5019L152.891 64.7467L151.97 62.0734L149.749 62.8286L149.54 62.221Z" fill="#F9F9F9"/>
<path d="M158.074 74.5105L158.152 74.9934L156.906 75.1375L156.845 74.7604L158.074 74.5105ZM155.602 74.904L156.845 74.7604L156.906 75.1375L155.68 75.3868L155.602 74.904ZM157.117 73.6903L157.529 73.8705L157.038 75.0188L156.715 74.875L157.117 73.6903ZM157.5 76.0659L156.746 75.0654L157.008 74.8284L157.835 75.7668L157.5 76.0659ZM156.636 76.2035L156.224 76.0233L156.715 74.875L157.038 75.0188L156.636 76.2035ZM156.253 73.8279L157.008 74.8284L156.746 75.0654L155.918 74.127L156.253 73.8279Z" fill="#F9F9F9"/>
<path d="M153.845 87.2778C153.851 86.7852 153.966 86.364 154.189 86.0144C154.414 85.6648 154.731 85.3972 155.138 85.2116C155.544 85.0285 156.022 84.9401 156.569 84.9466L156.576 84.9467C157.128 84.9533 157.604 85.0542 158.004 85.2494C158.404 85.447 158.711 85.7232 158.926 86.078C159.141 86.4353 159.245 86.8566 159.239 87.3422C159.233 87.83 159.119 88.2488 158.896 88.5984C158.672 88.9504 158.357 89.2192 157.95 89.4048C157.546 89.5904 157.069 89.6799 156.519 89.6734L156.512 89.6733C155.964 89.6667 155.49 89.5659 155.087 89.3706C154.687 89.1778 154.379 88.9028 154.162 88.5455C153.945 88.1907 153.839 87.7681 153.845 87.2778ZM154.438 87.2849C154.433 87.6371 154.517 87.9416 154.687 88.1983C154.858 88.4551 155.099 88.6543 155.412 88.7961C155.727 88.9379 156.096 89.0113 156.52 89.0164L156.527 89.0165C156.955 89.0216 157.327 88.957 157.643 88.8227C157.959 88.6884 158.204 88.495 158.379 88.2424C158.553 87.9897 158.642 87.6873 158.647 87.3351C158.651 86.9852 158.569 86.682 158.401 86.4252C158.232 86.1685 157.992 85.9681 157.679 85.8239C157.367 85.6822 156.997 85.6087 156.568 85.6036L156.561 85.6035C156.137 85.5985 155.766 85.6619 155.448 85.7938C155.132 85.9257 154.886 86.1179 154.709 86.3705C154.533 86.6231 154.442 86.9279 154.438 87.2849Z" fill="#F9F9F9"/>
<path d="M153.485 94.5877L158.024 95.1473L158.23 93.5L158.804 93.5707L158.313 97.5031L157.739 97.4323L157.944 95.785L153.405 95.2254L153.485 94.5877Z" fill="#F9F9F9"/>
<path d="M152.583 100.302L157.595 101.493L157.444 102.118L155.277 101.603L154.615 104.352L156.782 104.867L156.632 105.492L151.619 104.3L151.77 103.675L154.052 104.218L154.714 101.469L152.432 100.926L152.583 100.302Z" fill="#F9F9F9"/>
<path d="M153.169 115.217L152.974 115.666L151.843 115.125L151.995 114.775L153.169 115.217ZM150.867 114.235L151.995 114.775L151.843 115.125L150.673 114.684L150.867 114.235ZM152.801 114.016L153.053 114.388L152.019 115.096L151.823 114.802L152.801 114.016ZM151.846 116.225L151.747 114.979L152.096 114.919L152.29 116.151L151.846 116.225ZM151.041 115.882L150.79 115.51L151.823 114.802L152.019 115.096L151.041 115.882ZM151.997 113.673L152.096 114.919L151.747 114.979L151.552 113.747L151.997 113.673Z" fill="#F9F9F9"/>
<path d="M142.708 123.744C142.978 123.332 143.301 123.038 143.678 122.862C144.057 122.687 144.469 122.63 144.913 122.69C145.356 122.753 145.807 122.932 146.267 123.23L146.273 123.233C146.737 123.533 147.085 123.872 147.319 124.249C147.551 124.629 147.663 125.026 147.653 125.439C147.643 125.855 147.505 126.266 147.239 126.672C146.972 127.08 146.65 127.372 146.273 127.548C145.894 127.726 145.483 127.784 145.039 127.724C144.597 127.665 144.145 127.486 143.683 127.188L143.677 127.184C143.217 126.887 142.87 126.549 142.634 126.17C142.399 125.794 142.286 125.398 142.295 124.981C142.302 124.566 142.44 124.154 142.708 123.744ZM143.206 124.065C143.013 124.36 142.92 124.661 142.926 124.968C142.932 125.276 143.03 125.573 143.218 125.859C143.408 126.146 143.681 126.404 144.037 126.634L144.043 126.638C144.403 126.871 144.753 127.015 145.092 127.07C145.432 127.125 145.743 127.092 146.027 126.972C146.31 126.852 146.548 126.645 146.741 126.35C146.933 126.057 147.026 125.758 147.022 125.452C147.018 125.146 146.922 124.849 146.735 124.561C146.547 124.275 146.273 124.016 145.913 123.783L145.907 123.779C145.551 123.549 145.203 123.405 144.863 123.347C144.525 123.29 144.213 123.32 143.927 123.439C143.642 123.558 143.401 123.767 143.206 124.065Z" fill="#F9F9F9"/>
<path d="M138.463 129.724L142.004 132.617L143.063 131.339L143.511 131.704L140.984 134.757L140.536 134.391L141.595 133.112L138.053 130.219L138.463 129.724Z" fill="#F9F9F9"/>
<path d="M134.625 134.07L138.227 137.753L137.765 138.199L136.207 136.607L134.173 138.571L135.731 140.163L135.268 140.609L131.666 136.927L132.128 136.48L133.768 138.157L135.802 136.193L134.162 134.516L134.625 134.07Z" fill="#F9F9F9"/>
<path d="M127.096 146.99L126.692 147.265L126.025 146.203L126.341 145.988L127.096 146.99ZM125.676 144.929L126.341 145.988L126.025 146.203L125.272 145.204L125.676 144.929ZM127.428 145.779L127.442 146.227L126.19 146.272L126.181 145.919L127.428 145.779ZM125.438 147.132L126.021 146.028L126.349 146.163L125.854 147.307L125.438 147.132ZM124.942 146.412L124.928 145.964L126.181 145.919L126.19 146.272L124.942 146.412ZM126.932 145.059L126.349 146.163L126.021 146.028L126.517 144.884L126.932 145.059Z" fill="#F9F9F9"/>
<path d="M85.323 161.088L84.8339 161.088L84.8875 159.834L85.2695 159.834L85.323 161.088ZM85.323 158.585L85.2695 159.834L84.8875 159.834L84.8339 158.585L85.323 158.585ZM86.2834 160.274L86.0407 160.652L84.9839 159.984L85.1767 159.688L86.2834 160.274ZM83.8771 160.274L84.9839 159.688L85.1767 159.984L84.1199 160.652L83.8771 160.274ZM83.8771 159.399L84.1199 159.02L85.1767 159.688L84.9839 159.984L83.8771 159.399ZM86.2834 159.399L85.1767 159.984L84.9839 159.688L86.0407 159.02L86.2834 159.399Z" fill="#F9F9F9"/>
<path d="M113.671 148.613C114.12 148.409 114.55 148.333 114.962 148.386C115.376 148.442 115.754 148.614 116.096 148.902C116.437 149.192 116.721 149.585 116.951 150.083L116.954 150.089C117.185 150.591 117.298 151.063 117.293 151.508C117.286 151.953 117.167 152.348 116.938 152.692C116.707 153.038 116.371 153.311 115.929 153.512C115.484 153.714 115.056 153.789 114.644 153.736C114.229 153.684 113.851 153.513 113.508 153.225C113.167 152.938 112.881 152.545 112.651 152.046L112.648 152.039C112.418 151.542 112.306 151.07 112.31 150.624C112.313 150.181 112.429 149.785 112.659 149.438C112.888 149.091 113.225 148.816 113.671 148.613ZM113.919 149.151C113.598 149.297 113.358 149.501 113.199 149.765C113.04 150.028 112.964 150.331 112.969 150.673C112.976 151.018 113.068 151.383 113.246 151.767L113.249 151.774C113.428 152.163 113.646 152.472 113.903 152.7C114.16 152.928 114.441 153.067 114.744 153.117C115.048 153.168 115.36 153.12 115.681 152.974C115.999 152.829 116.238 152.626 116.399 152.365C116.559 152.104 116.637 151.802 116.633 151.458C116.627 151.116 116.535 150.75 116.356 150.361L116.353 150.355C116.175 149.97 115.959 149.662 115.703 149.43C115.448 149.201 115.168 149.06 114.863 149.008C114.559 148.956 114.244 149.003 113.919 149.151Z" fill="#F9F9F9"/>
<path d="M106.863 151.411L108.301 155.752L109.879 155.237L110.061 155.786L106.294 157.017L106.112 156.468L107.69 155.952L106.253 151.61L106.863 151.411Z" fill="#F9F9F9"/>
<path d="M101.273 153.042L102.335 158.084L101.706 158.214L101.247 156.034L98.4782 156.61L98.9376 158.79L98.3084 158.921L97.2462 153.88L97.8753 153.749L98.359 156.044L101.127 155.469L100.644 153.173L101.273 153.042Z" fill="#F9F9F9"/>
<circle opacity="0.6" cx="86" cy="87" r="62.2" stroke="#F9F9F9" strokeWidth="0.4"/>
<circle opacity="0.6" cx="86.5" cy="86.5" r="85.7" stroke="#F9F9F9" strokeWidth="0.4"/>
</svg>
