<svg width="81" height="81" viewBox="0 0 81 81" fill="none" xmlns="http://www.w3.org/2000/svg">
<path d="M80.9393 40.7647C80.9393 62.9861 62.9254 81 40.704 81C18.4827 81 0.46875 62.9861 0.46875 40.7647C0.46875 18.5434 18.4827 0.529419 40.704 0.529419C62.9254 0.529419 80.9393 18.5434 80.9393 40.7647Z" fill="#F9F9F9" fill-opacity="0.04"/>
<path d="M32.8783 75.0054C32.2056 74.8655 31.8842 74.3045 32.0429 73.5515C32.2016 72.7986 32.7221 72.4143 33.3948 72.5542C34.0676 72.6941 34.3893 73.2535 34.2306 74.0065C34.072 74.7594 33.5511 75.1453 32.8783 75.0054ZM32.9358 74.7325C33.4211 74.8334 33.803 74.5284 33.9263 73.9432C34.0493 73.3596 33.8226 72.928 33.3373 72.8271C32.8521 72.7262 32.4702 73.0312 32.3472 73.6148C32.2239 74.2001 32.4506 74.6316 32.9358 74.7325Z" fill="#F9F9F9"/>
<path d="M29.7163 71.6226L30.0038 71.7165L29.3272 73.7596L30.0539 73.9971L29.9683 74.2555L28.2276 73.6866L28.3131 73.4282L29.0398 73.6657L29.7163 71.6226Z" fill="#F9F9F9"/>
<path d="M25.6389 69.9749L25.9142 70.1001L25.4522 71.1026L26.6635 71.6535L27.1254 70.6509L27.4007 70.7761L26.3862 72.978L26.1109 72.8528L26.5496 71.9006L25.3383 71.3498L24.8996 72.302L24.6243 72.1768L25.6389 69.9749Z" fill="#F9F9F9"/>
<path d="M20.2728 68.5389L20.4646 68.9801L20.7243 68.5736L20.9063 68.6973L20.6174 69.084L21.106 69.1033L21.0778 69.3279L20.6056 69.267L20.8314 69.6826L20.6347 69.7845L20.4382 69.3441L20.1805 69.7479L19.9999 69.6251L20.2864 69.2388L19.8025 69.2186L19.8241 68.9977L20.3009 69.0578L20.07 68.6407L20.2728 68.5389Z" fill="#F9F9F9"/>
<path d="M15.5237 65.8925C15.0293 65.4152 15.0582 64.7706 15.5963 64.2205C16.1344 63.6705 16.7811 63.6245 17.2754 64.1018C17.7698 64.5791 17.742 65.2225 17.2039 65.7726C16.6658 66.3226 16.0181 66.3698 15.5237 65.8925ZM15.7187 65.6931C16.0753 66.0374 16.5621 65.9842 16.9803 65.5567C17.3974 65.1303 17.437 64.6454 17.0804 64.3012C16.7238 63.9569 16.237 64.0101 15.82 64.4364C15.4017 64.864 15.3621 65.3489 15.7187 65.6931Z" fill="#F9F9F9"/>
<path d="M14.6753 61.3667L14.8682 61.5997L13.2015 62.9613L13.6889 63.5502L13.4781 63.7224L12.3104 62.3117L12.5212 62.1395L13.0086 62.7283L14.6753 61.3667Z" fill="#F9F9F9"/>
<path d="M12.096 57.7908L12.2617 58.0438L11.3347 58.6429L12.0636 59.7561L12.9907 59.157L13.1564 59.41L11.1202 60.7259L10.9545 60.4729L11.835 59.9039L11.1061 58.7907L10.2256 59.3597L10.0599 59.1067L12.096 57.7908Z" fill="#F9F9F9"/>
<path d="M8.3573 53.7318L8.28297 54.2074L8.71977 54.0027L8.80715 54.2047L8.35634 54.377L8.75838 54.6548L8.61431 54.8295L8.24844 54.5254L8.21653 54.9975L7.99593 54.9784L8.06584 54.501L7.63213 54.7044L7.54542 54.504L7.99402 54.3308L7.5964 54.0548L7.73295 53.8796L8.10325 54.1855L8.13161 53.7094L8.3573 53.7318Z" fill="#F9F9F9"/>
<path d="M5.77289 48.9674C5.61193 48.2993 5.98193 47.7692 6.73054 47.5912C7.47915 47.4132 8.04901 47.7198 8.20996 48.3879C8.37092 49.0559 8.00256 49.5856 7.25395 49.7636C6.50534 49.9416 5.93385 49.6354 5.77289 48.9674ZM6.04422 48.9028C6.16032 49.3847 6.59926 49.5998 7.18115 49.4614C7.7614 49.3235 8.05473 48.9342 7.93863 48.4524C7.82254 47.9705 7.3836 47.7554 6.80334 47.8934C6.22145 48.0318 5.92813 48.421 6.04422 48.9028Z" fill="#F9F9F9"/>
<path d="M7.49886 44.698L7.53635 44.998L5.40031 45.2614L5.49508 46.0199L5.22495 46.0532L4.99793 44.2361L5.26806 44.2028L5.36283 44.9613L7.49886 44.698Z" fill="#F9F9F9"/>
<path d="M7.23916 40.304L7.24282 40.6064L6.13907 40.6195L6.15517 41.9501L7.25891 41.9369L7.26257 42.2393L4.83836 42.2682L4.8347 41.9658L5.88301 41.9533L5.86692 40.6228L4.81861 40.6353L4.81495 40.3329L7.23916 40.304Z" fill="#F9F9F9"/>
<path d="M6.28038 34.89L5.9615 35.2526L6.44037 35.3118L6.40532 35.5291L5.93207 35.4351L6.12176 35.8838L5.90607 35.9549L5.76112 35.5031L5.47992 35.8854L5.30405 35.7519L5.62014 35.3854L5.14459 35.3267L5.17938 35.1111L5.65123 35.2032L5.46432 34.7583L5.67391 34.6828L5.82165 35.1385L6.10199 34.751L6.28038 34.89Z" fill="#F9F9F9"/>
<path d="M6.67458 29.4923C6.89845 28.8426 7.49668 28.5917 8.22519 28.8395C8.9537 29.0872 9.27009 29.6491 9.04622 30.2988C8.82235 30.9484 8.22571 31.1998 7.4972 30.9521C6.76869 30.7043 6.45071 30.1419 6.67458 29.4923ZM6.93863 29.582C6.77716 30.0506 7.0322 30.4657 7.59846 30.6582C8.16314 30.8503 8.6207 30.6776 8.78217 30.209C8.94365 29.7404 8.6886 29.3254 8.12393 29.1333C7.55766 28.9408 7.1001 29.1135 6.93863 29.582Z" fill="#F9F9F9"/>
<path d="M10.421 26.8035L10.2911 27.0766L8.34277 26.1624L8.01451 26.8528L7.76811 26.7371L8.5545 25.0833L8.80089 25.1989L8.47263 25.8893L10.421 26.8035Z" fill="#F9F9F9"/>
<path d="M12.5858 22.9624L12.4263 23.2193L11.4851 22.6425L10.7832 23.7729L11.7243 24.3497L11.5648 24.6066L9.49769 23.3398L9.65723 23.0829L10.5511 23.6307L11.2531 22.5003L10.3592 21.9525L10.5187 21.6956L12.5858 22.9624Z" fill="#F9F9F9"/>
<path d="M14.6747 17.8741L14.2102 18.0096L14.5837 18.3151L14.4375 18.4796L14.0874 18.1477L14.0071 18.6272L13.7864 18.572L13.9061 18.1138L13.463 18.2859L13.3858 18.0795L13.85 17.9393L13.479 17.636L13.6241 17.4728L13.9741 17.8023L14.0546 17.3275L14.2725 17.3758L14.1531 17.8387L14.5983 17.6617L14.6747 17.8741Z" fill="#F9F9F9"/>
<path d="M17.9063 13.5172C18.4436 13.0888 19.084 13.1971 19.5675 13.7957C20.051 14.3943 20.0177 15.0375 19.4804 15.4659C18.943 15.8942 18.3037 15.7872 17.8202 15.1886C17.3367 14.59 17.369 13.9455 17.9063 13.5172ZM18.0816 13.7341C17.694 14.0431 17.6874 14.5296 18.0633 14.9948C18.438 15.4588 18.9176 15.5578 19.3051 15.2489C19.6927 14.94 19.6992 14.4535 19.3245 13.9895C18.9486 13.5242 18.4691 13.4252 18.0816 13.7341Z" fill="#F9F9F9"/>
<path d="M22.5325 13.2503L22.2766 13.4114L21.1193 11.5968L20.4723 12.004L20.3259 11.7746L21.8758 10.799L22.0222 11.0285L21.3752 11.4357L22.5325 13.2503Z" fill="#F9F9F9"/>
<path d="M26.4232 11.154L26.1509 11.2857L25.665 10.2946L24.4672 10.8742L24.9532 11.8653L24.681 11.997L23.6136 9.82026L23.8858 9.68853L24.3474 10.6298L25.5451 10.0502L25.0836 9.10891L25.3558 8.97718L26.4232 11.154Z" fill="#F9F9F9"/>
<path d="M30.9257 7.96451L30.4613 7.83083L30.6127 8.28903L30.4012 8.34999L30.2838 7.88202L29.9592 8.24484L29.8025 8.08016L30.1491 7.75648L29.6831 7.66523L29.7286 7.4493L30.1952 7.57883L30.0448 7.12385L30.2547 7.06336L30.3733 7.52926L30.6956 7.17059L30.8535 7.32789L30.5047 7.65573L30.9751 7.74397L30.9257 7.96451Z" fill="#F9F9F9"/>
<path d="M36.0059 5.99687C36.6889 5.92093 37.1705 6.35423 37.2567 7.11887C37.3428 7.88352 36.9694 8.41021 36.2864 8.48614C35.6034 8.56208 35.122 8.13046 35.0358 7.36581C34.9497 6.60117 35.323 6.07281 36.0059 5.99687ZM36.0372 6.27401C35.5446 6.32879 35.2778 6.73711 35.3448 7.33146C35.4115 7.92415 35.7626 8.26377 36.2552 8.209C36.7478 8.15423 37.0145 7.74591 36.9478 7.15322C36.8808 6.55887 36.5297 6.21924 36.0372 6.27401Z" fill="#F9F9F9"/>
<path d="M40.0571 8.23523H39.7547V6.08303H38.9903V5.81085H40.8216V6.08303H40.0571V8.23523Z" fill="#F9F9F9"/>
<path d="M44.4621 8.52827L44.1616 8.49485L44.2851 7.39797L42.9627 7.25092L42.8391 8.3478L42.5385 8.31438L42.81 5.90525L43.1105 5.93867L42.9931 6.98046L44.3156 7.12751L44.433 6.08572L44.7336 6.11914L44.4621 8.52827Z" fill="#F9F9F9"/>
<path d="M50.0051 8.23051L49.6849 7.87069L49.5659 8.3382L49.3544 8.27724L49.5073 7.81951L49.0376 7.95341L48.9941 7.73103L49.4612 7.64186L49.1167 7.31703L49.2715 7.1588L49.5959 7.51632L49.7139 7.05204L49.9238 7.11253L49.773 7.56911L50.2385 7.43751L50.2872 7.65437L49.8159 7.74584L50.1656 8.07045L50.0051 8.23051Z" fill="#F9F9F9"/>
<path d="M55.358 9.26657C55.9765 9.56589 56.1507 10.1877 55.8119 10.8786C55.4731 11.5695 54.8737 11.8151 54.2551 11.5157C53.6366 11.2164 53.4617 10.5961 53.8005 9.90524C54.1393 9.21434 54.7395 8.96725 55.358 9.26657ZM55.2352 9.51698C54.7891 9.30109 54.3436 9.5036 54.0803 10.0406C53.8177 10.5761 53.9318 11.0494 54.3779 11.2653C54.824 11.4812 55.2695 11.2787 55.5321 10.7432C55.7954 10.2062 55.6813 9.73287 55.2352 9.51698Z" fill="#F9F9F9"/>
<path d="M57.5795 13.3084L57.3236 13.1473L58.4809 11.3328L57.834 10.9256L57.9803 10.6961L59.5302 11.6716L59.3838 11.9011L58.7369 11.4939L57.5795 13.3084Z" fill="#F9F9F9"/>
<path d="M61.156 15.9029L60.9196 15.7144L61.6132 14.8557L60.5727 14.0263L59.8791 14.8849L59.6426 14.6964L61.166 12.8105L61.4025 12.999L60.7437 13.8145L61.7842 14.644L62.443 13.8284L62.6794 14.0169L61.156 15.9029Z" fill="#F9F9F9"/>
<path d="M65.9812 18.5958L65.9031 18.1212L65.5519 18.4518L65.4056 18.2873L65.7803 17.9831L65.3111 17.8449L65.3934 17.6341L65.8364 17.8086L65.7191 17.3505L65.9348 17.2998L66.0176 17.7747L66.3663 17.4463L66.5115 17.6095L66.1392 17.9139L66.6036 18.0518L66.5286 18.2607L66.0808 18.0859L66.2028 18.5466L65.9812 18.5958Z" fill="#F9F9F9"/>
<path d="M69.934 22.3176C70.2965 22.9014 70.1109 23.5196 69.4548 23.9217C68.7987 24.3237 68.1607 24.2103 67.7982 23.6265C67.4357 23.0428 67.6199 22.4254 68.276 22.0234C68.932 21.6213 69.5715 21.7339 69.934 22.3176ZM69.6962 22.4633C69.4348 22.0423 68.9499 21.9749 68.4399 22.2874C67.9314 22.5991 67.7745 23.0598 68.036 23.4808C68.2974 23.9019 68.7823 23.9693 69.2908 23.6576C69.8008 23.3451 69.9577 22.8844 69.6962 22.4633Z" fill="#F9F9F9"/>
<path d="M69.6377 26.909L69.5078 26.6359L71.4562 25.7216L71.128 25.0312L71.3743 24.9156L72.1607 26.5695L71.9143 26.6851L71.5861 25.9947L69.6377 26.909Z" fill="#F9F9F9"/>
<path d="M71.2654 31.0045L71.1668 30.7186L72.2119 30.3632L71.7784 29.1051L70.7333 29.4605L70.6348 29.1746L72.9301 28.394L73.0286 28.68L72.0361 29.0175L72.4696 30.2755L73.4621 29.938L73.5607 30.2239L71.2654 31.0045Z" fill="#F9F9F9"/>
<path d="M73.8867 35.848L74.0756 35.4045L73.602 35.4969L73.567 35.2796L74.0461 35.2221L73.7248 34.8547L73.9073 34.7202L74.1871 35.1044L74.334 34.654L74.543 34.7262L74.358 35.1724L74.8282 35.0805L74.863 35.2962L74.3858 35.3551L74.7033 35.7197L74.528 35.8565L74.2443 35.4695L74.0999 35.9246L73.8867 35.848Z" fill="#F9F9F9"/>
<path d="M75.2152 41.0952C75.2069 41.7823 74.7178 42.2066 73.9484 42.1974C73.179 42.1882 72.702 41.7524 72.7103 41.0653C72.7186 40.3782 73.206 39.9539 73.9754 39.963C74.7448 39.9722 75.2235 40.4081 75.2152 41.0952ZM74.9363 41.0919C74.9423 40.5963 74.5697 40.281 73.9716 40.2738C73.3752 40.2667 72.9952 40.573 72.9892 41.0686C72.9832 41.5642 73.3558 41.8795 73.9521 41.8866C74.5502 41.8937 74.9303 41.5874 74.9363 41.0919Z" fill="#F9F9F9"/>
<path d="M72.4971 44.8164L72.5346 44.5163L74.6706 44.7797L74.7654 44.0211L75.0355 44.0544L74.8085 45.8716L74.5383 45.8383L74.6331 45.0798L72.4971 44.8164Z" fill="#F9F9F9"/>
<path d="M71.6667 49.137L71.7375 48.843L72.8114 49.0984L73.1231 47.8047L72.0492 47.5494L72.12 47.2554L74.4786 47.8162L74.4078 48.1102L73.3879 47.8677L73.0762 49.1613L74.0961 49.4038L74.0253 49.6978L71.6667 49.137Z" fill="#F9F9F9"/>
<path d="M71.271 54.6211L71.6695 54.3473L71.2194 54.1734L71.3067 53.9714L71.7429 54.1776L71.669 53.6967L71.8958 53.6803L71.9255 54.1533L72.2922 53.8513L72.4301 54.0235L72.0334 54.3017L72.4804 54.4742L72.3937 54.6747L71.9584 54.4706L72.0306 54.9471L71.8086 54.9693L71.7772 54.4919L71.41 54.7991L71.271 54.6211Z" fill="#F9F9F9"/>
<path d="M69.572 59.7616C69.1955 60.3364 68.5535 60.4336 67.9072 60.016C67.2609 59.5983 67.0916 58.9768 67.468 58.4019C67.8445 57.827 68.4851 57.7289 69.1314 58.1466C69.7777 58.5643 69.9484 59.1867 69.572 59.7616ZM69.3377 59.6102C69.6092 59.1956 69.4634 58.7313 68.9611 58.4066C68.4602 58.0829 67.9738 58.1386 67.7023 58.5533C67.4308 58.9679 67.5766 59.4322 68.0775 59.7559C68.5798 60.0806 69.0662 60.0248 69.3377 59.6102Z" fill="#F9F9F9"/>
<path d="M65.2553 61.4542L65.4482 61.2213L67.1149 62.5829L67.6024 61.994L67.8132 62.1662L66.6454 63.5769L66.4346 63.4047L66.9221 62.8158L65.2553 61.4542Z" fill="#F9F9F9"/>
<path d="M62.2311 64.6534L62.4487 64.4434L63.2205 65.2324L64.1779 64.3082L63.406 63.5192L63.6235 63.3091L65.3189 65.0422L65.1013 65.2522L64.3682 64.5028L63.4109 65.427L64.144 66.1764L63.9264 66.3865L62.2311 64.6534Z" fill="#F9F9F9"/>
<path d="M58.9427 69.0804L59.4262 69.0625L59.1387 68.6749L59.3207 68.5511L59.579 68.9586L59.774 68.5131L59.9745 68.6206L59.7464 69.0357L60.2181 68.9771L60.2425 69.1962L59.7582 69.2187L60.0438 69.6035L59.8631 69.7263L59.6044 69.3212L59.4103 69.762L59.2108 69.662L59.4398 69.2422L58.9649 69.305L58.9427 69.0804Z" fill="#F9F9F9"/>
<path d="M39.5176 75.2478L39.9258 75.5049L39.909 75.0227H40.1291L40.1106 75.5049L40.5239 75.2461L40.6281 75.4477L40.2047 75.6628L40.6264 75.8795L40.5223 76.0744L40.1106 75.8207L40.1274 76.2995H39.909L39.9258 75.819L39.5159 76.0744L39.4084 75.8795L39.8351 75.6611L39.4084 75.4461L39.5176 75.2478Z" fill="#F9F9F9"/>
<path d="M54.732 72.5228C54.1065 72.8072 53.5125 72.5458 53.1905 71.8469C52.8684 71.1481 53.0582 70.5321 53.6837 70.2477C54.3092 69.9632 54.9025 70.2231 55.2246 70.922C55.5466 71.6208 55.3576 72.2383 54.732 72.5228ZM54.6153 72.2695C55.0665 72.0643 55.1919 71.5938 54.9416 71.0506C54.692 70.5089 54.2516 70.2958 53.8004 70.501C53.3492 70.7061 53.2238 71.1766 53.4734 71.7183C53.7237 72.2615 54.1641 72.4746 54.6153 72.2695Z" fill="#F9F9F9"/>
<path d="M50.1817 71.6556L50.4692 71.5616L51.1458 73.6047L51.8724 73.3673L51.958 73.6256L50.2172 74.1945L50.1317 73.9361L50.8583 73.6987L50.1817 71.6556Z" fill="#F9F9F9"/>
<path d="M45.8968 72.7453L46.1929 72.6837L46.4205 73.7638L47.7233 73.4929L47.4957 72.4128L47.7918 72.3512L48.2917 74.7235L47.9956 74.7851L47.7794 73.7592L46.4766 74.0302L46.6928 75.056L46.3967 75.1176L45.8968 72.7453Z" fill="#F9F9F9"/>
<path d="M69.642 41.0001C69.642 57.1138 56.5793 70.1766 40.4655 70.1766C24.3518 70.1766 11.2891 57.1138 11.2891 41.0001C11.2891 24.8864 24.3518 11.8236 40.4655 11.8236C56.5793 11.8236 69.642 24.8864 69.642 41.0001Z" fill="#F9F9F9" fill-opacity="0.04"/>
<path d="M80.9393 40.7647C80.9393 62.9861 62.9254 81 40.704 81C18.4827 81 0.46875 62.9861 0.46875 40.7647C0.46875 18.5434 18.4827 0.529419 40.704 0.529419C62.9254 0.529419 80.9393 18.5434 80.9393 40.7647Z" fill="#F9F9F9" fill-opacity="0.1"/>
<path fill-rule="evenodd" clip-rule="evenodd" d="M42.6091 47.1984L41.1117 48.6958C41.0198 48.7877 40.8708 48.7877 40.7789 48.6958L39.2815 47.1984C39.1897 47.1065 39.1897 46.9575 39.2815 46.8656C39.3734 46.7737 39.5224 46.7737 39.6143 46.8656L40.71 47.9614L40.71 33.4706H41.1806V47.9614L42.2763 46.8656C42.3682 46.7737 42.5172 46.7737 42.6091 46.8656C42.701 46.9575 42.701 47.1065 42.6091 47.1984Z" fill="#F9F9F9"/>
</svg>
